<svg width="24" height="24" viewBox="0 0 24 24" fill="none" xmlns="http://www.w3.org/2000/svg">
<g clip-path="url(#clip0_12_2)">
<path d="M12 2C14.6255 1.99793 17.1465 3.02846 19.0187 4.86911C20.8908 6.70976 21.9641 9.21285 22.0066 11.838C22.0491 14.4631 21.0576 16.9997 19.246 18.9C17.4344 20.8003 14.9482 21.912 12.324 21.995L12 22L11.676 21.995C9.05185 21.912 6.56559 20.8003 4.75401 18.9C2.94243 16.9997 1.95087 14.4631 1.99341 11.838C2.03595 9.21285 3.10917 6.70976 4.98137 4.86911C6.85356 3.02846 9.37454 1.99793 12 2ZM12.707 7.293C12.5195 7.10553 12.2652 7.00022 12 7.00022C11.7348 7.00022 11.4805 7.10553 11.293 7.293L7.29301 11.293C7.26349 11.3227 7.23577 11.354 7.21001 11.387L7.14601 11.479L7.09401 11.577L7.05001 11.687L7.02001 11.799L7.00301 11.925L7.00001 12L7.00401 12.09L7.01101 12.148L7.03601 12.266L7.07101 12.371L7.12501 12.484L7.16801 12.554L7.23901 12.649L7.29301 12.707L11.293 16.707L11.387 16.79C11.588 16.9454 11.8406 17.0185 12.0935 16.9944C12.3465 16.9703 12.5807 16.8508 12.7488 16.6603C12.9168 16.4697 13.006 16.2223 12.9982 15.9684C12.9905 15.7144 12.8864 15.473 12.707 15.293L10.415 13H16L16.117 12.993C16.3701 12.9629 16.6022 12.8373 16.7657 12.6418C16.9293 12.4464 17.0121 12.1958 16.9972 11.9414C16.9822 11.687 16.8707 11.4478 16.6854 11.2729C16.5 11.0979 16.2549 11.0003 16 11H10.414L12.707 8.707L12.79 8.613C12.9393 8.4206 13.0132 8.18035 12.9979 7.93732C12.9826 7.6943 12.8792 7.4652 12.707 7.293Z" fill="#10B0AE"/>
</g>
<defs>
<clipPath id="clip0_12_2">
<rect width="24" height="24" fill="white"/>
</clipPath>
</defs>
</svg>
