<svg width="50" height="50" viewBox="0 0 50 50" fill="none" xmlns="http://www.w3.org/2000/svg">
<g clip-path="url(#clip0_1_2)">
<g filter="url(#filter0_d_1_2)">
<path d="M25 42C36.598 42 46 32.598 46 21C46 9.40202 36.598 0 25 0C13.402 0 4 9.40202 4 21C4 32.598 13.402 42 25 42Z" fill="#FEF7F5"/>
<path d="M25 41.5C36.3218 41.5 45.5 32.3218 45.5 21C45.5 9.67816 36.3218 0.5 25 0.5C13.6782 0.5 4.5 9.67816 4.5 21C4.5 32.3218 13.6782 41.5 25 41.5Z" stroke="#FFE7E2"/>
</g>
<path d="M28.0106 16.5238L20.5113 24.2194C20.2289 24.5092 20.2349 24.973 20.5247 25.2554C20.8145 25.5378 21.2783 25.5318 21.5607 25.242L29.06 17.5464C29.3424 17.2566 29.3364 16.7928 29.0466 16.5104C28.7569 16.228 28.293 16.234 28.0106 16.5238Z" fill="#FFA2A2"/>
<path d="M20.5258 17.6984L28.2214 25.1977C28.5112 25.4801 28.975 25.4741 29.2574 25.1843C29.5398 24.8945 29.5338 24.4307 29.244 24.1483L21.5484 16.649C21.2587 16.3666 20.7948 16.3726 20.5124 16.6623C20.23 16.9521 20.236 17.416 20.5258 17.6984Z" fill="#FFA2A2"/>
</g>
<defs>
<filter id="filter0_d_1_2" x="0" y="0" width="50" height="50" filterUnits="userSpaceOnUse" color-interpolation-filters="sRGB">
<feFlood flood-opacity="0" result="BackgroundImageFix"/>
<feColorMatrix in="SourceAlpha" type="matrix" values="0 0 0 0 0 0 0 0 0 0 0 0 0 0 0 0 0 0 127 0" result="hardAlpha"/>
<feOffset dy="4"/>
<feGaussianBlur stdDeviation="2"/>
<feComposite in2="hardAlpha" operator="out"/>
<feColorMatrix type="matrix" values="0 0 0 0 0.972549 0 0 0 0 0.745098 0 0 0 0 0.701961 0 0 0 0.2 0"/>
<feBlend mode="normal" in2="BackgroundImageFix" result="effect1_dropShadow_1_2"/>
<feBlend mode="normal" in="SourceGraphic" in2="effect1_dropShadow_1_2" result="shape"/>
</filter>
<clipPath id="clip0_1_2">
<rect width="50" height="50" fill="white"/>
</clipPath>
</defs>
</svg>
