<svg width="50" height="50" viewBox="0 0 50 50" fill="none" xmlns="http://www.w3.org/2000/svg">
<g clip-path="url(#clip0_1_54)">
<g filter="url(#filter0_d_1_54)">
<path d="M25 42C36.598 42 46 32.598 46 21C46 9.40202 36.598 0 25 0C13.402 0 4 9.40202 4 21C4 32.598 13.402 42 25 42Z" fill="#F5FEF7"/>
<path d="M25 41.5C36.3218 41.5 45.5 32.3218 45.5 21C45.5 9.67816 36.3218 0.5 25 0.5C13.6782 0.5 4.5 9.67816 4.5 21C4.5 32.3218 13.6782 41.5 25 41.5Z" stroke="#7CFF89"/>
</g>
<path d="M31.273 17.7794L23.7737 25.475C23.6325 25.6199 23.6355 25.8519 23.7803 25.9931C23.9252 26.1343 24.1572 26.1313 24.2984 25.9864L31.7977 18.2907C31.9389 18.1458 31.9359 17.9139 31.791 17.7727C31.6461 17.6315 31.4142 17.6345 31.273 17.7794Z" fill="#45FF57" stroke="#52FF64" stroke-width="0.732635"/>
<path d="M19.7814 22.2975L23.352 25.7771C23.4969 25.9183 23.7289 25.9153 23.8701 25.7704C24.0113 25.6256 24.0083 25.3936 23.8634 25.2524L20.2927 21.7728C20.1478 21.6316 19.9159 21.6346 19.7747 21.7795C19.6335 21.9244 19.6365 22.1563 19.7814 22.2975Z" fill="#45FF57" stroke="#52FF64" stroke-width="0.732635"/>
</g>
<defs>
<filter id="filter0_d_1_54" x="0" y="0" width="50" height="50" filterUnits="userSpaceOnUse" color-interpolation-filters="sRGB">
<feFlood flood-opacity="0" result="BackgroundImageFix"/>
<feColorMatrix in="SourceAlpha" type="matrix" values="0 0 0 0 0 0 0 0 0 0 0 0 0 0 0 0 0 0 127 0" result="hardAlpha"/>
<feOffset dy="4"/>
<feGaussianBlur stdDeviation="2"/>
<feComposite in2="hardAlpha" operator="out"/>
<feColorMatrix type="matrix" values="0 0 0 0 0.972549 0 0 0 0 0.745098 0 0 0 0 0.701961 0 0 0 0.2 0"/>
<feBlend mode="normal" in2="BackgroundImageFix" result="effect1_dropShadow_1_54"/>
<feBlend mode="normal" in="SourceGraphic" in2="effect1_dropShadow_1_54" result="shape"/>
</filter>
<clipPath id="clip0_1_54">
<rect width="50" height="50" fill="white"/>
</clipPath>
</defs>
</svg>
