<svg width="98" height="98" viewBox="0 0 98 98" fill="none" xmlns="http://www.w3.org/2000/svg">
<g clip-path="url(#clip0_1_38)">
<path d="M49 98C76.062 98 98 76.062 98 49C98 21.938 76.062 0 49 0C21.938 0 0 21.938 0 49C0 76.062 21.938 98 49 98Z" fill="#F5F5F5"/>
<path d="M49.1008 46.1001C52.4422 46.1001 55.1509 43.3914 55.1509 40.0501C55.1509 36.7087 52.4422 34 49.1008 34C45.7595 34 43.0508 36.7087 43.0508 40.0501C43.0508 43.3914 45.7595 46.1001 49.1008 46.1001Z" fill="#AAAAAA"/>
<path opacity="0.5" d="M61.2002 57.443C61.2002 61.2021 61.2002 64.2493 49.1001 64.2493C37 64.2493 37 61.2021 37 57.443C37 53.684 42.4174 50.6367 49.1001 50.6367C55.7828 50.6367 61.2002 53.684 61.2002 57.443Z" fill="#AAAAAA"/>
</g>
<defs>
<clipPath id="clip0_1_38">
<rect width="98" height="98" fill="white"/>
</clipPath>
</defs>
</svg>
