<svg width="127" height="126" viewBox="0 0 127 126" fill="none" xmlns="http://www.w3.org/2000/svg">
<path d="M63.8325 125.665C98.5339 125.665 126.665 97.5339 126.665 62.8325C126.665 28.1311 98.5339 0 63.8325 0C29.1311 0 1 28.1311 1 62.8325C1 97.5339 29.1311 125.665 63.8325 125.665Z" fill="url(#paint0_linear_6_29)"/>
<path d="M50.1484 18.9844C45.9297 20.0391 39.1797 23.3438 37.5625 25.1016C35.3125 27.6328 38.125 27.2109 44.1016 24.1875L50.1484 21.1641H62.875C75.3203 21.1641 75.6719 21.2344 79.8203 23.1328C82.0703 24.1875 85.0234 25.875 86.3594 26.9297L88.75 28.7578L83.3359 34.1719L77.9922 39.5859L74.3359 38.3203C68.9219 36.4219 56.2656 36.4922 51.0625 38.3906C42.5547 41.625 37.2812 48.8672 36.7187 58.2891C36.4375 63.4922 36.2969 63.7734 34.5391 64.1953C33.5547 64.4062 32.2891 64.8984 31.7969 65.3203C31.1641 65.8125 30.5312 65.1094 29.3359 62.5781C28 59.6953 27.7891 57.9375 27.7891 51.3984C27.7891 44.4375 28 43.2422 29.7578 39.4453C30.8125 37.1953 32.5 34.2422 33.4844 32.9766C35.2422 30.7266 35.2422 29.25 33.5547 29.25C32.3594 29.25 28.4219 35.2969 26.5937 39.8672C25.3281 42.9609 25.0469 45.1406 25.0469 51.3984C24.9766 58.0781 25.2578 59.6953 26.7344 63.3516C28.4922 67.5 28.4922 67.6406 27.2969 70.0312C25.3281 73.8984 26.0312 80.5781 28.5625 81.5625C29.9687 82.125 30.5312 80.3672 29.6172 78.5391C27.5781 74.8125 29.6875 68.9062 33.6953 67.2187C34.8906 66.7266 36.0156 66.4453 36.1562 66.5859C36.2969 66.7266 36.5781 70.5937 36.7187 75.1641L37.0703 83.5312L35.1016 83.1094C33.9766 82.8984 32.9219 83.0391 32.6406 83.5312C31.9375 84.5859 34.3281 86.2031 36.5078 86.2031C38.0547 86.2031 38.7578 86.9766 40.7969 90.9844C45.0156 99.2812 54.4375 106.805 61.8906 107.789C68.5703 108.703 80.875 99.4922 85.4453 90.1406C86.8516 87.1875 87.7656 86.2031 88.8906 86.2031C93.0391 86.1328 99.1562 81.2109 99.1562 77.9062C99.1562 76.3594 97.1172 77.0625 95.9219 79.1016C94.5859 81.3516 91.5625 83.3906 89.4531 83.3906C88.1875 83.3906 88.1172 83.1094 88.6797 80.7187C89.0312 79.3125 89.3125 75.5156 89.3125 72.2812C89.3125 67.4297 89.5234 66.5156 90.4375 66.5156C91.7031 66.5156 96.625 71.1562 97.1875 72.8437C97.4687 73.6875 97.75 73.7578 98.5234 73.0547C99.2266 72.2812 99.2266 71.7187 98.3125 69.75C97.1875 67.5 97.1875 67.2187 99.0156 62.9297C100.633 59.0625 100.844 57.4453 100.844 51.3984C100.844 45.3516 100.562 43.6641 98.875 39.5859L96.9062 34.8047L100.141 31.3594C103.656 27.5625 104.148 25.4531 102.109 22.8516C100.07 20.3906 96.8359 20.7422 93.6719 23.8359C92.1953 25.2422 90.7891 26.4375 90.5781 26.4375C90.3672 26.4375 88.5391 25.3828 86.5703 24.0469C79.75 19.4063 76.0937 18.4922 64.3516 18.2813C57.3203 18.1406 52.6094 18.3516 50.1484 18.9844ZM99.4375 24.0469C101.336 24.75 100.703 27.4219 98.1016 29.9531C95.7109 32.2734 95.6406 32.2734 94.2344 31.0078C92.2656 29.25 92.4766 28.3359 95.2891 25.8047C98.1016 23.4141 97.8906 23.4844 99.4375 24.0469ZM86.0078 42.0469C81.8594 46.2656 78.0625 49.6406 77.5703 49.6406C77.1484 49.6406 76.2344 48.9375 75.6719 48.0938C74.5469 46.5469 74.7578 46.2656 82.4219 38.5313L90.3672 30.5859L91.9141 32.5547L93.5312 34.5234L86.0078 42.0469ZM97.0469 42.3281C98.7344 47.8828 98.875 54.3516 97.3281 59.5547C95.4297 65.8125 95.4297 65.8828 92.1953 64.6172L89.4531 63.5625L89.1719 58.4297C88.9609 54.8438 88.2578 52.1719 87.0625 49.7109L85.375 46.1953L89.9453 41.625C92.4062 39.0938 94.7266 37.1953 95.0781 37.4063C95.3594 37.6172 96.2734 39.7969 97.0469 42.3281ZM73.0703 40.5703C75.6719 41.4844 75.6719 41.6953 73.4922 44.1563C71.875 46.0547 71.6641 46.0547 63.5078 46.0547C58.9375 46.125 54.1562 46.4063 52.8906 46.7578C49.0937 47.8828 44.5937 50.8359 41.8516 54L39.25 57.0234L39.7422 54.5625C40.8672 48.7969 46 42.8906 51.6953 40.9219C55.1406 39.6563 69.8359 39.4453 73.0703 40.5703ZM61.6094 49.2891C61.8906 49.8516 62.4531 50.3438 62.9453 50.3438C63.4375 50.3438 64 49.8516 64.2812 49.2891C64.7031 48.1641 66.6016 47.9531 68.5 48.6563C69.3437 49.0078 69.4844 49.3594 68.9219 49.9922C68.5 50.5547 68.0781 51.6797 67.9375 52.5938C67.8672 53.5781 67.2344 55.0547 66.6016 55.9688C64.8437 58.5 66.9531 60.1172 68.9219 57.7266C69.4141 57.1641 70.6094 56.6719 71.5937 56.6719C72.7187 56.6719 74.3359 55.7578 75.7422 54.4219L78.0625 52.1719L80.5937 54.6328C85.0937 58.9219 86.0781 61.6641 86.2891 70.6641C86.3594 75.0937 86.1484 80.1562 85.7266 81.8437C84.7422 86.2734 81.5781 92.5312 79.6797 93.7266C78.7656 94.3594 78.0625 95.2031 78.0625 95.625C78.0625 96.8906 74.6875 99.9141 70.0469 102.656C65.4766 105.398 64 105.75 64 104.203C64 102.516 62.5234 102.094 62.1016 103.711C61.6094 105.609 61.1875 105.539 56.9687 103.43C52.75 101.32 48.6016 97.7344 47.7578 95.5547C47.4062 94.6406 46.7031 93.9375 46.2109 93.9375C44.9453 93.9375 41.9219 88.3125 40.5156 83.3906C39.7422 80.5781 39.4609 77.1328 39.6016 71.0859C39.8125 61.5234 40.6562 58.9219 45.1562 54.4219C48.3906 51.1875 51.2734 49.6406 55.4922 48.9375C60.4141 48.0938 61.1875 48.1641 61.6094 49.2891ZM86.5 56.25C86.5 57.2344 85.9375 56.8125 84.4609 54.7031C83.3359 53.1563 82 51.6797 81.5781 51.3984C81.0156 51.0469 81.1562 50.4844 82.0703 49.5C83.3359 48.0938 83.3359 48.1641 84.8828 51.5391C85.7969 53.3672 86.5 55.5469 86.5 56.25ZM74.2656 50.6953C74.8281 52.1016 73.3516 53.8594 71.6641 53.8594C70.0469 53.8594 69.9766 52.5938 71.5234 50.9063C72.9297 49.3594 73.7734 49.2891 74.2656 50.6953Z" fill="white"/>
<path d="M61.8906 57.375C61.8906 58.7812 62.2422 59.4844 62.9453 59.4844C63.6484 59.4844 64 58.7812 64 57.375C64 55.9688 63.6484 55.2656 62.9453 55.2656C62.2422 55.2656 61.8906 55.9688 61.8906 57.375Z" fill="white"/>
<path d="M41.9219 60.8203C41.289 61.875 43.4687 63.1406 45.0156 62.6484C47.1953 61.9453 46.7734 60.1875 44.3828 60.1875C43.1875 60.1875 42.1328 60.4688 41.9219 60.8203Z" fill="white"/>
<path d="M48.5312 61.1719C48.5312 62.2969 50.9219 63.3516 52.0469 62.6484C53.5938 61.6641 52.75 60.1875 50.6406 60.1875C49.3047 60.1875 48.5312 60.5391 48.5312 61.1719Z" fill="white"/>
<path d="M55.1406 60.9609C54.6484 61.7344 55.9844 63 57.3203 63C58.6562 63 59.9922 61.7344 59.5 60.9609C59.2187 60.5391 58.2344 60.1875 57.3203 60.1875C56.4062 60.1875 55.4219 60.5391 55.1406 60.9609Z" fill="white"/>
<path d="M66.8125 61.1719C66.8125 62.2969 69.2031 63.3516 70.3281 62.6484C71.875 61.6641 71.0313 60.1875 68.9219 60.1875C67.5859 60.1875 66.8125 60.5391 66.8125 61.1719Z" fill="white"/>
<path d="M73.4219 60.9609C72.9297 61.7344 74.2656 63 75.6016 63C76.9375 63 78.2734 61.7344 77.7812 60.9609C77.5 60.5391 76.5156 60.1875 75.6016 60.1875C74.6875 60.1875 73.7031 60.5391 73.4219 60.9609Z" fill="white"/>
<path d="M80.1719 61.1719C80.1719 62.3672 81.8594 63.1406 83.3359 62.5781C85.2344 61.8047 84.5313 60.1875 82.2813 60.1875C80.9453 60.1875 80.1719 60.5391 80.1719 61.1719Z" fill="white"/>
<path d="M61.8906 66.8672C61.8906 68.625 62.1719 69.3281 62.8047 69.1172C63.2266 68.9766 63.6484 67.9922 63.6484 66.8672C63.6484 65.7422 63.2266 64.7578 62.8047 64.5469C62.1719 64.4062 61.8906 65.1094 61.8906 66.8672Z" fill="white"/>
<path d="M45.1562 68.4141C45.2968 69.1172 46.6328 70.3125 48.1093 71.0156C50.6406 72.2109 51.1328 72.2812 53.664 71.3672C56.5468 70.3828 58.375 68.4141 57.4609 67.5C57.1797 67.1484 55.9843 67.5 54.9297 68.1328C52.3984 69.6094 50.8515 69.6094 48.25 68.2734C45.6484 66.8672 44.875 66.9375 45.1562 68.4141Z" fill="white"/>
<path d="M67.7969 67.9922C67.1641 69.1172 70.1172 71.2969 72.9297 71.8594C75.6016 72.3516 80.5235 70.2422 80.5235 68.625C80.5235 67.4297 79.3281 67.4297 76.0938 68.7656C74.0547 69.5391 73.4922 69.5391 71.6641 68.4141C69.1328 67.0078 68.5 66.9375 67.7969 67.9922Z" fill="white"/>
<path d="M41.8516 73.5469C41.2188 74.6016 42.836 76.3594 44.3828 76.3594C46.0703 76.3594 46.0703 75.0234 44.5235 73.8281C42.9766 72.7031 42.4141 72.6328 41.8516 73.5469Z" fill="white"/>
<path d="M81.4375 73.6172C79.75 74.5312 79.8203 76.3594 81.5078 76.3594C83.0547 76.3594 84.6719 74.6016 84.0391 73.5469C83.4766 72.7031 82.9844 72.7031 81.4375 73.6172Z" fill="white"/>
<path d="M59.7812 75.6562C57.8125 77.625 58.0234 80.1562 60.2734 81.9844C62.3125 83.5312 63.5078 83.5312 63.8594 81.8437C64 81.2109 63.4375 80.5781 62.5937 80.3672C60.7656 79.875 60.6953 77.3437 62.5937 76.8516C63.3672 76.6406 64 76.0078 64 75.375C64 73.7578 61.4687 73.9687 59.7812 75.6562Z" fill="white"/>
<path d="M46.4219 78.3984C46.4219 80.1562 48.3203 81.7734 49.3047 80.7891C49.7969 80.2969 49.7969 79.5937 49.0938 78.5391C47.9688 76.7109 46.4219 76.6406 46.4219 78.3984Z" fill="white"/>
<path d="M76.5859 78.5391C76.0938 79.5937 76.0234 80.2266 76.5859 80.7891C77.5703 81.7734 79.4688 80.1562 79.4688 78.3984C79.4688 76.5703 77.5703 76.7109 76.5859 78.5391Z" fill="white"/>
<path d="M49.0234 83.1094C48.7422 83.3906 48.5312 84.375 48.5312 85.2891C48.5312 86.4844 48.9531 86.9062 50.0078 86.9062C51.1328 86.9062 51.4141 86.5547 51.2031 85.0078C50.9922 83.1797 49.9375 82.2656 49.0234 83.1094Z" fill="white"/>
<path d="M75.0391 83.1094C74.336 83.8125 74.4063 86.7656 75.1797 87.1875C76.0938 87.75 77.5 85.7812 77.2188 84.375C77.0078 83.0391 75.8125 82.4062 75.0391 83.1094Z" fill="white"/>
<path d="M55.5625 88.3125C55.5625 89.7187 55.9141 89.7891 62.8047 89.5781C68.6406 89.4375 69.9766 89.1562 69.9766 88.3125C69.9766 87.4687 68.6406 87.1875 62.8047 87.0469C55.9141 86.8359 55.5625 86.9062 55.5625 88.3125Z" fill="white"/>
<path d="M48.3203 89.5078C47.4063 90.3516 47.8281 93.2344 48.8125 93.2344C49.7969 93.2344 50.6406 91.7578 50.6406 90C50.6406 89.0156 49.1641 88.6641 48.3203 89.5078Z" fill="white"/>
<path d="M75.25 90.7734C75.25 91.7578 75.7422 92.7422 76.3047 93.0234C77.8516 93.5859 78.2734 92.8828 77.7813 90.7734C77.2188 88.4531 75.25 88.4531 75.25 90.7734Z" fill="white"/>
<path d="M61.8906 95.6953C61.8906 97.4531 62.1719 98.1562 62.8047 97.9453C63.2266 97.8047 63.6484 96.8203 63.6484 95.6953C63.6484 94.5703 63.2266 93.5859 62.8047 93.375C62.1719 93.2344 61.8906 93.9375 61.8906 95.6953Z" fill="white"/>
<defs>
<linearGradient id="paint0_linear_6_29" x1="63.8325" y1="0" x2="63.8325" y2="125.665" gradientUnits="userSpaceOnUse">
<stop stop-color="#10B0AE"/>
<stop offset="1" stop-color="#E2E5ED"/>
</linearGradient>
</defs>
</svg>
