<svg width="127" height="126" viewBox="0 0 127 126" fill="none" xmlns="http://www.w3.org/2000/svg">
<path d="M63.8325 125.665C98.5339 125.665 126.665 97.5339 126.665 62.8325C126.665 28.1311 98.5339 0 63.8325 0C29.1311 0 0.999985 28.1311 0.999985 62.8325C0.999985 97.5339 29.1311 125.665 63.8325 125.665Z" fill="url(#paint0_linear_6_21)"/>
<path d="M66.9531 23.3438C63.0156 26.0859 62.1016 32.625 65.125 36.2109C71.0313 43.2422 82.5625 37.3359 80.1719 28.5469C79.1172 24.6094 75.9531 22.2188 71.8047 22.2188C69.9766 22.2188 67.8672 22.7109 66.9531 23.3438Z" fill="white"/>
<path d="M57.3203 47.0391C53.1016 49.4297 51.3437 53.0156 51.3437 59.625C51.3437 62.5781 51.6953 65.8828 52.1172 67.0078C53.1016 69.6094 56.125 72.7734 58.7266 73.9688C60.625 74.8125 60.2031 74.8828 53.3828 74.9531C46.6328 74.9531 45.8594 75.0938 44.5234 76.5C42.5547 78.75 42.1328 80.2969 42.9766 82.4766C44.3828 86.2031 43.8203 86.1328 75.8125 86.2031H105.555L107.242 84.4453C109.562 82.1953 109.562 78.9609 107.242 76.7109C105.555 75.0234 105.273 74.9531 94.5859 74.9531H83.6875V71.1562C83.6875 69.0469 84.0391 67.0781 84.3906 66.8672C84.8125 66.5859 86.0078 67.3594 87.1328 68.5547C89.5937 71.1562 92.4766 71.4375 95.2187 69.2578C96.5547 68.2031 97.0469 67.1484 97.0469 65.4609C97.0469 63.7734 97.6797 62.5078 99.1562 61.0312C101.477 58.6406 101.828 56.3906 100.141 54C97.8203 50.625 96.2734 50.6953 84.6016 54.6328C71.7344 58.9219 71.7344 58.8516 71.7344 68.625V74.9531H68.9219H66.1094V67.5C66.1094 55.8281 67.5859 54 80.3828 49.6406C87.9062 47.1094 88.1875 46.9688 86.2891 46.1953C85.0937 45.7031 79.4687 45.4219 72.2266 45.4219C60.9766 45.4219 59.9219 45.5625 57.3203 47.0391Z" fill="white"/>
<path d="M25.6797 69.1172C18.9297 70.875 16.9609 79.3828 22.2344 84.0234C29.3359 90.2812 39.8828 82.0547 35.5938 73.6172C33.8359 70.3125 29.2656 68.2031 25.6797 69.1172Z" fill="white"/>
<path d="M20.7578 94.2891C18.4375 96.5391 18.4375 99.7734 20.7578 102.023L22.4453 103.781H64H105.555L107.242 102.023C109.562 99.7734 109.562 96.5391 107.242 94.2891L105.555 92.5312H64H22.4453L20.7578 94.2891Z" fill="white"/>
<defs>
<linearGradient id="paint0_linear_6_21" x1="63.8325" y1="0" x2="63.8325" y2="125.665" gradientUnits="userSpaceOnUse">
<stop stop-color="#10B0AE"/>
<stop offset="1" stop-color="#E2E5ED"/>
</linearGradient>
</defs>
</svg>
