<svg width="127" height="126" viewBox="0 0 127 126" fill="none" xmlns="http://www.w3.org/2000/svg">
<path d="M63.8325 125.665C98.5339 125.665 126.665 97.5339 126.665 62.8325C126.665 28.1311 98.5339 0 63.8325 0C29.1311 0 1 28.1311 1 62.8325C1 97.5339 29.1311 125.665 63.8325 125.665Z" fill="url(#paint0_linear_6_16)"/>
<path d="M56.4062 27.0703C54.3672 27.7734 51.625 29.3906 50.3594 30.5859L48.0391 32.8359L43.5391 31.3594C41.0781 30.5156 38.6875 29.5312 38.1953 29.1797C36.3672 27.6328 32.9219 27.2109 30.6016 28.1953C27.7891 29.3203 26.7344 31.0781 26.7344 34.5234C26.7344 37.1953 28.4219 41.2031 29.5469 41.2031C29.9688 41.2031 30.25 42.3281 30.25 43.6641C30.25 50.6953 39.5312 57.9375 43.6094 54.2109C46.5625 51.5391 44.7344 44.8594 39.9531 40.9922C38.0547 39.5156 36.6484 38.9531 34.0469 38.8828C31.0234 38.7422 30.5312 38.5312 29.9688 36.9141C29.6172 35.9297 29.5469 34.2422 29.8281 33.2578C30.5312 30.4453 33.0625 30.1641 37.8438 32.2734C40.0234 33.2578 43.1875 34.3828 44.875 34.875C47.4062 35.5078 47.8281 35.9297 47.8281 37.4766C47.8281 38.7422 49.0234 40.4297 52.1172 43.3828C56.8984 47.9531 56.7578 47.1797 54.7891 56.5312C53.1016 64.6875 56.125 77.2031 60.7656 81.4922C62.4531 83.0391 62.5234 83.6016 62.7344 91.5469C62.875 98.4375 63.1562 99.9141 64 99.9141C64.8438 99.9141 65.125 98.4375 65.2656 91.5469C65.4766 83.6016 65.5469 83.0391 67.2344 81.4922C71.875 77.2031 74.8984 64.6875 73.2109 56.5312C71.2422 47.1797 71.1016 47.9531 75.8828 43.3828C78.9766 40.4297 80.1719 38.7422 80.1719 37.4766C80.1719 35.9297 80.5938 35.5078 83.1953 34.875C84.8125 34.3828 87.9766 33.2578 90.1562 32.2734C94.9375 30.1641 97.4688 30.4453 98.1719 33.2578C98.4531 34.2422 98.3828 35.9297 98.0312 36.9141C97.4688 38.5312 96.9766 38.7422 93.9531 38.8828C91.3516 38.9531 89.9453 39.5156 88.0469 40.9922C83.2656 44.8594 81.4375 51.5391 84.3906 54.2109C88.4688 57.9375 97.75 50.6953 97.75 43.6641C97.75 42.3281 98.0312 41.2031 98.4531 41.2031C99.5781 41.2031 101.266 37.1953 101.266 34.5234C101.266 31.0781 100.211 29.3203 97.3984 28.1953C95.0781 27.2109 91.6328 27.6328 89.8047 29.1797C89.3125 29.5312 86.9219 30.5156 84.5312 31.2891L80.0312 32.8359L77.3594 30.375C72.4375 25.9453 63.7188 24.5391 56.4062 27.0703Z" fill="white"/>
<defs>
<linearGradient id="paint0_linear_6_16" x1="63.8325" y1="0" x2="63.8325" y2="125.665" gradientUnits="userSpaceOnUse">
<stop stop-color="#10B0AE"/>
<stop offset="1" stop-color="#E2E5ED"/>
</linearGradient>
</defs>
</svg>
