<svg width="127" height="126" viewBox="0 0 127 126" fill="none" xmlns="http://www.w3.org/2000/svg">
<path d="M63.8325 125.665C98.5339 125.665 126.665 97.5339 126.665 62.8325C126.665 28.1311 98.5339 0 63.8325 0C29.1311 0 1 28.1311 1 62.8325C1 97.5339 29.1311 125.665 63.8325 125.665Z" fill="url(#paint0_linear_5_2)"/>
<path d="M54.1563 24.4688C47.7578 27.7734 46.1406 33.8906 49.7266 41.2734C50.9922 43.875 54.2266 47.7422 60.3438 53.7891L69.0625 62.5078L71.4531 60.1172C73.7031 57.8672 73.7735 57.5859 73.0703 55.2656C70.8203 47.8828 79.1172 38.6719 86.7813 40.0781C88.961 40.5 89.2422 40.3594 89.9453 38.3203C91.6328 33.3984 90.5078 29.6719 86.2188 25.875C82.0703 22.2188 76.375 22.0078 71.5235 25.3125L69.0625 27L66.5313 25.2422C62.9453 22.6406 58.2344 22.3594 54.1563 24.4688Z" fill="#FFEFEF"/>
<path d="M80.2422 43.875C75.5312 46.4062 73.8437 53.2266 76.6562 57.9375C78.5547 61.0312 83.4062 63.2109 86.9219 62.5781C90.1562 61.9453 93.8828 58.7109 94.9375 55.5469C97.75 47.0391 88.3281 39.5156 80.2422 43.875ZM86.5 49.2891C86.5 50.5547 86.9219 50.9766 88.4687 51.1875C91 51.4687 91 53.4375 88.4687 53.7187C87.0625 53.8594 86.5 54.3516 86.3594 55.7578C86.0781 58.5 84.3906 58.7109 84.3906 56.0391C84.3906 54.1406 84.1797 53.8594 82.4219 53.8594C81.2969 53.8594 80.1719 53.6484 79.9609 53.3672C79.1172 52.5937 80.9453 51.0469 82.7031 51.0469C83.9687 51.0469 84.3906 50.6953 84.3906 49.4297C84.3906 48.5156 84.6015 47.5312 84.8125 47.3203C85.6562 46.5469 86.5 47.5312 86.5 49.2891Z" fill="#FFEFEF"/>
<path d="M45.3672 72.9141C43.8203 73.2656 40.8672 74.6016 38.8984 75.7969L35.1719 78.0469V86.6953C35.1719 91.4766 35.3828 95.3438 35.5938 95.3438C35.8047 95.3438 37 94.6406 38.1953 93.7969C42.0625 91.0547 48.1797 91.1953 57.7422 94.2891C69.7656 98.1563 70.3281 98.0859 87.5547 88.7344C95.2891 84.5156 102.18 80.5781 102.883 80.0156C105.063 78.1172 104.008 74.25 101.336 74.25C100.773 74.25 96.625 75.6563 92.125 77.4141C85.0234 80.2266 83.8984 80.8594 82.9844 82.8984C81.5078 85.9922 78.625 86.8359 68.7813 86.8359C60.0625 86.9063 58.375 86.625 58.375 85.0781C58.375 84.3047 60.3438 84.0938 68.7813 84.0938C78.0625 84.0938 79.3984 83.9531 80.3828 82.8281C81.8594 81.2109 81.9297 78.1875 80.4531 76.7813C79.6094 75.8672 77.7109 75.6563 71.5234 75.6563C65.8281 75.6563 62.4531 75.3047 59.4297 74.3203C53.875 72.5625 48.8125 72.0703 45.3672 72.9141Z" fill="#FFEFEF"/>
<path d="M23.9219 88.6641V103.078H28.1406H32.3594V88.6641V74.25H28.1406H23.9219V88.6641Z" fill="#FFEFEF"/>
<defs>
<linearGradient id="paint0_linear_5_2" x1="63.8325" y1="0" x2="63.8325" y2="125.665" gradientUnits="userSpaceOnUse">
<stop stop-color="#10B0AE"/>
<stop offset="1" stop-color="#E2E5ED"/>
</linearGradient>
</defs>
</svg>
