<svg width="127" height="126" viewBox="0 0 127 126" fill="none" xmlns="http://www.w3.org/2000/svg">
<path d="M63.8325 125.665C98.5339 125.665 126.665 97.5339 126.665 62.8325C126.665 28.1311 98.5339 0 63.8325 0C29.1311 0 0.999985 28.1311 0.999985 62.8325C0.999985 97.5339 29.1311 125.665 63.8325 125.665Z" fill="url(#paint0_linear_6_25)"/>
<path d="M46.4922 19.125C41.6406 20.4609 38.9688 22.0781 35.0313 26.2969C29.1953 32.5547 27.0859 43.1719 30.25 50.1328L31.5859 53.1562L28.6328 54.4219C23.0078 56.9531 19 63 19 69.1875C19 74.3203 26.5938 89.2969 32.0781 94.9922C33.9063 96.8906 35.8047 98.0859 37.3516 98.4375C39.8125 98.8594 43.75 98.0859 45.2969 96.8203C45.9297 96.2578 46.9844 96.4687 48.8828 97.4531C50.4297 98.2266 52.2578 98.8594 53.0313 98.8594C55.8438 98.8594 60.1328 96.0469 62.8047 92.3906C65.2656 89.0156 65.6875 88.7344 68.5 88.6641C71.2422 88.6641 72.2969 88.0312 78.1328 83.25C86.5703 76.4297 99.4375 63.2109 103.164 57.5156C107.664 50.7656 109.211 45.9844 108.719 40.6406C107.734 29.1094 98.8047 19.7578 87.625 18.3516C82.8438 17.7188 75.8828 19.4063 71.9453 22.2188L68.9922 24.2578L65.0547 21.8672C61.1172 19.5469 55.8438 17.9297 52.1875 18.0703C51.1328 18.0703 48.6016 18.5625 46.4922 19.125ZM56.9688 22.2891C58.9375 22.7109 62.1016 24.1172 64.0703 25.4531C68.1484 28.1953 69.4844 28.3359 71.8047 26.5078C80.1016 20.1094 90.9297 20.3203 98.6641 27.0703C105.063 32.6953 107.102 43.3125 103.234 50.7656C99.2266 58.4297 86.8516 71.7891 74.8281 81.4922C68.1484 86.8359 66.8125 86.8359 69.5547 81.4219C72.5078 75.5156 73.9844 69.8906 73.4219 66.7266C71.4531 55.9687 60.4844 50.0625 51.1328 54.7734L47.8984 56.4609L47.125 54.5625C46.0703 51.9609 42.3438 48.0937 41.2891 48.4453C39.6719 48.9375 39.9531 51.1875 41.9922 53.3672C43.5391 55.0547 43.6797 55.3359 42.5547 54.9141C41.7813 54.6328 39.8125 54 38.1953 53.5781C35.5234 52.9453 35.0313 52.4531 33.6953 49.3594C31.7969 44.9297 32.0781 37.4062 34.3281 33.1172C36.8594 28.125 42.7656 23.4844 48.1797 22.1484C51.2734 21.4453 53.0313 21.4453 56.9688 22.2891ZM41.7813 58.7812C43.6797 60.1172 44.3125 61.1016 44.6641 63.4219C45.1563 67.0781 47.4063 70.5234 50.6406 72.7031C52.5391 73.9687 53.8047 74.25 56.9688 74.1094L60.8359 73.8984L60.7656 70.1719C60.625 65.6016 58.1641 61.5234 54.3672 59.5547L51.6953 58.2187L53.8047 57.375C57.0391 56.1094 62.1719 56.8828 65.0547 59.0625C72.2266 64.5469 71.3828 72.9141 62.3828 86.7656C57.1094 94.8516 54.4375 96.3984 49.8672 94.0078C46.5625 92.25 44.8047 92.1797 43.6797 93.5156C42.3438 95.1328 39.0391 95.5547 36.7891 94.3594C33.0625 92.4609 23.9922 77.2734 22.7969 70.9453C21.8125 65.7422 24.9063 59.8359 29.8984 57.5859C32.9922 56.1797 38.7578 56.8125 41.7813 58.7812ZM52.2578 62.5781C54.7188 63.5625 56.6172 65.9531 57.3906 68.9062C57.8125 70.5937 57.6719 70.7344 55.7031 70.7344C53.2422 70.7344 49.5156 67.9219 48.8828 65.6016C48.6016 64.7578 48.25 63.4922 48.1094 62.7891C47.6875 61.3125 49.0938 61.2422 52.2578 62.5781Z" fill="white"/>
<path d="M69.2734 37.3359L66.8828 42.6094H61.3984C55.4922 42.6094 53.7344 43.2422 54.3672 45C54.7188 45.9141 56.0547 46.125 61.8203 46.125H68.9219L70.6094 42.75C72.6484 38.8828 72.1563 38.1797 76.3047 51.6797C80.0312 63.7031 80.8047 64.125 84.25 55.2656C85.5156 51.9609 86.8516 48.5859 87.2031 47.6719C87.8359 46.2656 88.3281 46.125 93.5312 46.125C99.0859 46.125 99.2266 46.0547 99.0156 44.5078C98.8047 43.0313 98.4531 42.9609 92.4062 42.75C87.8359 42.6094 85.7969 42.8203 85.3047 43.4531C84.9531 43.9453 83.8984 46.3359 82.9844 48.7266C82.1406 51.1875 81.1562 53.1563 80.9453 53.1563C80.6641 53.1563 79.1875 49.1484 77.7109 44.1563C74.9687 35.0156 73.7031 32.0625 72.3672 32.0625C72.0156 32.0625 70.5391 34.4531 69.2734 37.3359Z" fill="white"/>
<path d="M46.6328 43.3828C45.5078 44.5078 46.2812 46.125 47.9687 46.125C48.9531 46.125 49.3047 45.7031 49.0937 44.5781C48.8125 42.8203 47.7578 42.2578 46.6328 43.3828Z" fill="white"/>
<defs>
<linearGradient id="paint0_linear_6_25" x1="63.8325" y1="0" x2="63.8325" y2="125.665" gradientUnits="userSpaceOnUse">
<stop stop-color="#10B0AE"/>
<stop offset="1" stop-color="#E2E5ED"/>
</linearGradient>
</defs>
</svg>
