<svg width="127" height="126" viewBox="0 0 127 126" fill="none" xmlns="http://www.w3.org/2000/svg">
<path d="M63.8325 125.665C98.5339 125.665 126.665 97.5339 126.665 62.8325C126.665 28.1311 98.5339 0 63.8325 0C29.1311 0 1 28.1311 1 62.8325C1 97.5339 29.1311 125.665 63.8325 125.665Z" fill="url(#paint0_linear_6_19)"/>
<path d="M63.0859 18.7734C61.6797 19.125 59.1484 20.0391 57.4609 20.8828C53.5938 22.9219 44.5938 31.6406 42.7656 35.2266C41.0078 38.6016 40.8672 44.2969 42.4141 47.4609L43.4688 49.6406H41.5C38.5469 49.6406 36.2969 50.9062 34.8906 53.2266C34.2578 54.3516 33.2734 55.2656 32.7109 55.2656C32.2188 55.2656 30.9531 56.25 29.9688 57.4453C26.5234 61.5234 28.2109 68.1328 33.1328 69.6797C34.2578 70.0312 34.4688 70.8047 34.4688 74.8125C34.5391 80.5781 35.3828 84.5859 37.6328 89.2969C40.1641 94.5 41.7813 96.3281 43.2578 95.7656C44.3828 95.3437 44.3828 95.2031 43.3281 93.7266C42.6953 92.8828 41.1484 90.1406 39.8828 87.6094C37.7734 83.25 37.6328 82.6875 37.6328 74.9531C37.6328 65.8125 38.5469 62.9297 43.6094 56.25C46 53.0859 46.7734 52.5234 49.0234 52.3125C52.75 52.0312 52.6797 50.0625 49.0234 49.7812C46.6328 49.5703 46.1406 49.2187 44.9453 46.6172C42.2734 40.6406 43.8906 36 51.2734 29.1094C58.5859 22.2187 60.9766 21.3047 72.7187 20.9531C84.8125 20.6016 87.6953 21.3047 92.1953 25.6641C95.5703 28.9687 97.75 33.9609 97.75 38.5312C97.75 40.6406 99.4375 41.2734 100.141 39.4453C100.703 37.9687 99.4375 31.8516 98.0312 29.1094C96.0625 25.1719 91.3516 20.8828 87.3437 19.4062C84.3203 18.2812 82 18 74.6875 18.0703C69.7656 18.1406 64.5625 18.4219 63.0859 18.7734ZM40.6563 55.8281C38.5469 58.8516 36.6484 62.6484 35.5938 66.0234C35.0313 67.7812 33.2031 67.2891 31.4453 64.9687C29.5469 62.3672 30.3906 59.5547 33.6953 57.9375C34.9609 57.3047 36.6484 55.8281 37.3516 54.6328C38.3359 52.9453 39.1797 52.4531 40.7969 52.4531H42.9063L40.6563 55.8281Z" fill="white"/>
<path d="M80.5937 33.2578C80.3828 33.4688 80.1719 36.6328 80.1719 40.1484C80.1719 45.9844 80.0312 46.7578 78.5547 48.0938C77.6406 48.9375 76.0234 49.6406 75.0391 49.6406C73.0703 49.6406 71.4531 51.75 73 52.3125C73.4922 52.4531 72.7187 53.8594 71.0312 55.8281C68.4297 58.7109 68.1484 59.4141 68.2187 62.5781C68.2187 64.5469 68.0781 67.5 67.7969 69.1172C67.375 71.8594 67.5859 72.3516 69.8359 74.6016C71.875 76.6406 72.7891 77.0625 75.3203 77.0625C78.2734 77.0625 78.625 76.8516 88.0469 67.3594L97.75 57.6562V66.8672C97.75 81.9844 95.8516 88.3828 89.1719 95.6953C79.3984 106.383 63.0859 108.281 50.5 100.125C47.5469 98.2266 46 97.5938 45.5078 98.0859C42.7656 100.828 58.375 108 66.9531 108C79.6094 108 91.7031 100.266 97.2578 88.5234L99.5078 83.7422L99.9297 65.1094C100.281 47.5312 100 42.75 98.5234 43.5938C98.1719 43.8047 97.6797 45.8438 97.3984 48.0234C96.7656 53.4375 95.0078 57.0234 90.8594 61.1016L87.4844 64.4062L82.2813 59.1328L77.0781 53.8594L79.3984 51.4688C81.3672 49.4297 82 49.1484 83.1953 49.7109C84.1797 50.2734 84.7422 50.2734 85.375 49.6406C85.9375 49.0781 85.6563 48.5156 84.25 47.3906C82.3516 46.0547 82.2813 45.7734 82.2813 39.7969C82.2813 34.0312 81.7891 32.0625 80.5937 33.2578ZM81.4375 70.3828C78.2734 73.4766 77.0078 74.25 75.1797 74.25C70.6094 74.25 68.8516 69.8906 71.8047 65.8828C73.3516 63.7734 73.1406 62.2969 71.3125 62.2969C69.7656 62.2969 70.1172 61.1719 72.5781 58.4297L74.7578 55.8984L80.1016 61.2422L85.4453 66.5859L81.4375 70.3828Z" fill="white"/>
<path d="M52.9609 71.7187C51.7656 72.7031 50.5703 74.3203 50.3594 75.3047C50.0781 76.3594 49.2344 77.2031 48.1797 77.4844C47.1953 77.6953 45.5781 78.8906 44.5938 80.0859C43.1172 81.8437 42.8359 82.7578 43.1875 84.7266C43.6094 87.4687 46.3516 90.4219 48.4609 90.4219C49.3047 90.4219 49.9375 91.125 50.2188 92.25C51.5547 97.5234 58.0938 99.3516 61.4688 95.2734C62.4531 94.0781 63.2969 92.5312 63.2969 91.7578C63.2969 90.9141 63.7891 90.4219 64.6328 90.4219C65.4062 90.4219 66.9531 89.5781 68.1484 88.5937C72.0859 85.2891 70.75 79.4531 65.7578 77.7656C64.1406 77.2031 63.2969 76.5 63.2969 75.6562C63.2969 73.4766 60.3438 70.7344 57.6016 70.3125C55.6328 69.9609 54.7188 70.2422 52.9609 71.7187ZM59.0078 73.4766C59.5703 73.8281 60.2031 75.5156 60.4141 77.2031C60.7656 79.6641 61.1172 80.1562 62.1719 80.0156C66.3203 79.2422 69.2734 82.7578 67.1641 85.9219C66.3203 87.2578 65.4766 87.6094 63.2969 87.6094C60.4844 87.6094 60.4844 87.6094 60.4844 90.4219C60.4844 92.6016 60.1328 93.4453 58.7969 94.2891C55.6328 96.3984 52.1172 93.4453 52.8906 89.2969C53.0312 88.1719 52.6094 87.8906 50.2891 87.75C47.2656 87.5391 45.7188 86.1328 45.7188 83.6016C45.7188 81.7031 48.6719 79.5937 50.6406 80.0859C52.3281 80.5078 53.1719 79.4531 52.8203 77.2031C52.4688 74.0391 56.2656 71.7187 59.0078 73.4766Z" fill="white"/>
<defs>
<linearGradient id="paint0_linear_6_19" x1="63.8325" y1="0" x2="63.8325" y2="125.665" gradientUnits="userSpaceOnUse">
<stop stop-color="#10B0AE"/>
<stop offset="1" stop-color="#E2E5ED"/>
</linearGradient>
</defs>
</svg>
