<svg width="127" height="126" viewBox="0 0 127 126" fill="none" xmlns="http://www.w3.org/2000/svg">
<path d="M63.8325 125.665C98.5339 125.665 126.665 97.5339 126.665 62.8325C126.665 28.1311 98.5339 0 63.8325 0C29.1311 0 1 28.1311 1 62.8325C1 97.5339 29.1311 125.665 63.8325 125.665Z" fill="url(#paint0_linear_6_33)"/>
<path d="M45.5078 26.5078C37.2109 27.8438 28.9844 34.5938 26.0312 42.4688C24.6953 45.8438 24.5547 47.6016 24.7656 53.7891L25.0469 61.0312L34.1172 78.9609C39.1797 88.8047 44.0312 97.4531 44.9453 98.2266C47.0547 99.9141 52.4687 100.055 54.7187 98.4375C55.5625 97.875 57.6719 94.5703 59.3594 91.2656C64.3516 81.4219 63.8594 81.4922 67.8672 89.7891C69.8359 93.7266 72.1562 97.5234 73.0703 98.2266C75.3203 100.055 80.8047 100.055 83.0547 98.2266C83.9687 97.5234 88.8203 88.875 93.8828 78.9609L102.953 61.0312L103.234 53.7891C103.445 47.5312 103.305 45.8438 101.898 42.2578C99.7187 36.4922 93.3906 30.0938 87.6953 27.9844C81.9297 25.8047 73.5625 25.875 68.0781 28.125L64 29.8125L59.9922 28.1953C55.2109 26.2969 50.2187 25.7344 45.5078 26.5078ZM57.1797 33.8203C57.8125 34.1016 58.375 34.4531 58.375 34.6641C58.375 35.7891 53.7344 41.4141 52.1172 42.2578C49.7266 43.4531 49.2344 44.5078 50.0078 46.6172C50.4297 47.8828 51.1328 48.2344 53.1016 48.2344C55.6328 48.2344 58.2344 46.0547 63.8594 39.2344C70.8203 30.7969 84.8125 30.5156 92.0547 38.7422C96.1328 43.3828 97.2578 46.8984 96.9062 53.4375C96.5547 59.0625 96.4844 59.2734 88.0469 76.1484C81.1562 89.8594 79.1875 93.2344 78.0625 93.2344C77.0078 93.2344 75.7422 91.4062 72.7187 85.3594C70.5391 81 68.2187 77.0625 67.5859 76.5703C66.9531 76.0781 65.3359 75.7266 64 75.7266C62.6641 75.7266 61.0469 76.0781 60.4141 76.5703C59.7812 77.0625 57.4609 81 55.2812 85.3594C52.2578 91.4062 50.9922 93.2344 49.9375 93.2344C48.8125 93.2344 46.8437 89.8594 39.9531 76.1484C31.6562 59.5547 31.4453 58.9922 31.0937 53.6484C30.6719 47.1094 32.0078 43.1016 35.7344 38.9531C41.0078 33.1172 49.9375 31.0078 57.1797 33.8203Z" fill="white"/>
<path d="M78.5547 40.9219C78.2734 41.2031 78.0625 42.4688 78.0625 43.7344C78.0625 45.9141 77.9219 46.0547 75.4609 46.2656C72.9297 46.4766 72.7891 46.6172 72.7891 48.9375C72.7891 51.2578 72.9297 51.3984 75.3906 51.6094C77.8516 51.8203 77.9922 51.9609 78.2031 54.4219C78.4141 56.8828 78.5547 57.0234 80.875 57.0234C83.1953 57.0234 83.3359 56.8828 83.5469 54.4219C83.7578 51.9609 83.8984 51.8203 86.3594 51.6094C88.8203 51.3984 88.9609 51.2578 88.9609 48.9375C88.9609 46.6172 88.8203 46.4766 86.3594 46.2656C83.8984 46.0547 83.7578 45.9141 83.5469 43.4531C83.3359 41.1328 83.125 40.8516 81.2266 40.6406C80.0312 40.5 78.8359 40.6406 78.5547 40.9219Z" fill="white"/>
<defs>
<linearGradient id="paint0_linear_6_33" x1="63.8325" y1="0" x2="63.8325" y2="125.665" gradientUnits="userSpaceOnUse">
<stop stop-color="#10B0AE"/>
<stop offset="1" stop-color="#E2E5ED"/>
</linearGradient>
</defs>
</svg>
