<svg width="127" height="126" viewBox="0 0 127 126" fill="none" xmlns="http://www.w3.org/2000/svg">
<path d="M63.8325 125.665C98.5339 125.665 126.665 97.5339 126.665 62.8325C126.665 28.1311 98.5339 0 63.8325 0C29.1311 0 1 28.1311 1 62.8325C1 97.5339 29.1311 125.665 63.8325 125.665Z" fill="url(#paint0_linear_6_27)"/>
<path d="M57.1797 22.8516C54.0859 24.9609 50.9922 26.5078 49.0937 26.7891C45.6484 27.3516 42.2031 28.9688 42.2031 29.9531C42.2031 30.3047 41.0781 31.6406 39.6719 32.9062C36.2969 36 33.2031 41.5547 32.6406 45.4922C32.3594 47.8125 31.7969 48.8672 30.7422 49.3594C26.4531 51.2578 26.5234 57.7969 30.8828 60.6797C32.7812 62.0156 34.6797 65.0391 35.1719 67.6406C35.2422 67.9219 27.2969 66.4453 25.8203 65.8828C23.2187 64.8281 20.4062 66.1641 19.5625 68.7656C18.0859 73.1953 23.0078 78.1875 30.8125 79.9453C35.2422 81 35.4531 81.9844 31.8672 85.2187C29.9687 86.9766 29.4766 87.8203 30.0391 88.3828C30.6016 88.9453 31.3047 88.8047 32.6406 87.9609C34.0469 86.9766 34.6797 86.9062 35.4531 87.5391C37 88.875 39.1797 94.0078 39.7422 97.6641C40.2344 100.758 40.1641 100.969 38.4062 101.672C37.4219 102.023 34.1172 102.516 31.0937 102.797L25.6094 103.289L23.7109 100.758C21.25 97.5234 21.3203 96.75 23.9219 96.75C25.5391 96.75 26.2422 96.2578 27.0859 94.6406C27.6484 93.5156 28.1406 92.25 28.1406 91.8281C28.1406 90.6328 26.1719 91.0547 25.1875 92.4609C24.6953 93.1641 23.5 94.0078 22.5156 94.2891C17.9453 95.6953 17.875 98.1562 22.1641 102.727L25.2578 106.102L30.3906 105.539C37.3516 104.695 41.7109 104.766 47.125 105.82C51.9062 106.734 58.2344 106.453 62.5234 105.047C64.3516 104.484 66.7422 104.555 71.9453 105.187C80.1016 106.312 81.1562 105.961 84.6016 101.18C86.4297 98.5781 86.6406 97.9453 85.9375 96.4687C85.5156 95.4141 84.3203 94.5703 82.9844 94.2891C81.6484 94.0078 80.4531 93.0937 79.8203 91.8281C79.2578 90.7031 77.0078 88.3125 74.8984 86.4844C70.2578 82.4766 69.9766 80.9297 73.7031 80.2266C82.2812 78.6797 87.4141 73.0547 85.375 67.5703C84.6016 65.6016 82 65.0391 78.625 66.1641C76.9375 66.6562 74.2656 67.2187 72.6484 67.4297L69.7656 67.7812L71.0312 64.9687C71.7344 63.4219 73.2812 61.5937 74.4766 60.8203C75.6719 60.1172 76.6562 59.2031 76.6562 58.7812C76.6562 57.5859 77.7812 58.0078 80.9453 60.5391C82.6328 61.875 84.6719 63 85.5156 63C87.2734 63 97.0469 55.4766 97.0469 54.0703C97.0469 52.3125 95.1484 53.1562 90.3672 56.9531L85.5859 60.75L81.7891 57.8672C79.75 56.25 78.0625 54.4219 78.0625 53.7891C78.0625 52.3125 75.3906 48.9375 74.2656 48.9375C73.7734 48.9375 73.0703 47.1094 72.5781 44.7891C72.0859 42.5391 70.9609 39.5156 69.9766 38.1094C67.7969 34.875 67.7969 34.5938 69.9766 31.7812C70.9609 30.5156 71.7344 29.1094 71.7344 28.6172C71.7344 28.1953 72.5078 27.4219 73.4922 27C75.8828 25.9453 80.1719 27.2109 83.2656 30.0234L85.6562 32.1328L88.1875 29.9531C89.5234 28.7578 91.7734 27.4219 93.1094 27.0703C99.3672 25.3125 106.187 30.6562 106.187 37.2656C106.187 40.7109 105.133 43.1719 101.828 47.0391C99.7187 49.5703 99.1562 50.625 99.7891 51.2578C100.914 52.3828 105.133 48.0937 107.383 43.4531C111.883 34.2422 105.766 24.3281 95.6406 24.3281C92.1953 24.3281 87.2031 26.2266 86.1484 27.8438C85.8672 28.2656 84.6719 27.7734 83.1953 26.6484C81.0156 24.9609 79.8203 24.6094 75.25 24.4688C71.2422 24.2578 69.2734 24.4688 67.6562 25.3125C64.7031 26.8594 64.7031 26.7891 64.7031 23.7656C64.7031 21.375 63.7187 19.4062 62.6641 19.4062C62.3828 19.4062 59.9922 20.9531 57.1797 22.8516ZM61.75 25.8047C61.4687 29.6016 62.8047 30.6562 66.1094 28.9688C68.8516 27.6328 68.9219 27.6328 68.9219 28.5469C68.9219 28.9688 67.6562 30.6562 66.0391 32.4141C63.1562 35.5078 59.2187 37.4766 57.3203 36.7031C55.5625 36.0703 54.1562 37.0547 54.1562 38.8125C54.1562 41.1328 52.8203 40.9219 49.1641 38.1094C43.1875 33.6094 43.0469 30.5156 48.7422 29.6016C51.9766 29.0391 55.2812 27.4922 59.0781 24.75C60.4141 23.7656 61.6797 22.9922 61.75 22.9219C61.8906 22.9219 61.8906 24.2578 61.75 25.8047ZM44.1719 37.125C46.4922 39.8672 51.8359 43.3125 53.8047 43.3125C55.5625 43.3125 56.9687 42.0469 56.9687 40.5703C56.9687 39.7969 57.6719 39.375 59.0781 39.3047C60.2031 39.2344 62.1719 38.6016 63.4375 37.9687C65.6172 36.8437 65.6875 36.8437 67.2344 38.7422C70.2578 42.6094 71.1719 49.0781 69.2734 53.5781C68.5703 55.3359 68.3594 57.3047 68.6406 59.8359C69.2031 64.4766 68.4297 65.9531 64.2109 68.0625C61.2578 69.4687 59.7812 69.6797 52.75 69.6797C45.5078 69.6797 44.3125 69.4687 41.1484 67.9219C36.7187 65.7422 35.4531 63.4219 36.6484 59.625C37.2812 57.4453 37.2109 56.4609 36.2969 54.2812C34.8906 50.9062 34.8203 45.4219 36.1562 42.2578C37.4219 39.3047 40.7266 34.875 41.6406 34.875C41.9922 34.875 43.1172 35.8594 44.1719 37.125ZM33.6953 54.9844C34.8906 58.9219 33.9766 60.3984 31.7266 58.1484C30.3203 56.7422 29.6875 53.2266 30.7422 52.2422C31.8672 51.1172 32.8516 51.9609 33.6953 54.9844ZM75.1094 54.2109C75.25 55.7578 74.8281 56.8125 73.5625 58.0078C71.9453 59.5547 71.7344 59.5547 71.3125 58.5C71.0312 57.7969 71.2422 56.0391 71.7344 54.4922C72.8594 51.1172 74.7578 50.9766 75.1094 54.2109ZM27.0156 68.9766C28.9141 69.5391 32.1484 70.0312 34.2578 70.0312C36.3672 70.0312 39.9531 70.5937 42.2031 71.2266C45.5781 72.2812 46.5625 72.9141 47.1953 74.4609C49.4453 79.8047 56.5469 79.9453 58.7266 74.6719C59.5 72.8437 60.3437 72.2109 63.5078 71.2266C65.5469 70.5937 69.0625 70.0312 71.1719 70.0312C73.2812 70.0312 76.5859 69.5391 78.4141 68.9766C80.9453 68.2734 82.0703 68.2031 82.7734 68.7656C86.0781 71.5078 78.3437 77.7656 71.5937 77.7656C70.5391 77.7656 68.9922 78.3984 68.2187 79.1719C66.8828 80.5078 65.8984 80.5781 52.3984 80.5781C39.8828 80.5781 37.9844 80.4375 37.4219 79.4531C37 78.75 35.3125 78.0469 33.1328 77.6953C26.2422 76.6406 21.1094 72.7031 22.1641 69.3984C22.7266 67.6406 22.6562 67.6406 27.0156 68.9766ZM55.9141 74.25C55.2109 75.0234 53.9453 75.6562 53.1016 75.6562C52.2578 75.6562 50.9922 75.0234 50.2891 74.25C49.0234 72.8437 49.0937 72.8437 53.1016 72.8437C57.1094 72.8437 57.1797 72.8437 55.9141 74.25ZM68.9219 84.3047C68.9219 84.8672 68.2891 85.8516 67.5859 86.4844C65.5469 88.3125 63.2266 94.2891 62.9453 98.2969C62.8047 100.687 62.3125 102.094 61.5391 102.516C59.5703 103.641 50.5 103.992 46.2812 103.148L42.2031 102.305V98.6484C42.1328 94.2891 40.9375 90.5625 38.4062 87.3281C37.4219 85.9922 36.5781 84.5859 36.5781 84.1641C36.5781 83.6016 41.7812 83.3906 52.75 83.3906C65.8281 83.3906 68.9219 83.6016 68.9219 84.3047ZM74.0547 89.1562C75.4609 90.4219 77.2187 92.6016 77.9219 93.9375C78.7656 95.4844 79.8203 96.4687 80.9453 96.6094C83.7578 97.0312 83.9687 97.875 81.8594 100.617L79.8906 103.289L74.8984 102.867C66.4609 102.094 65.4062 101.742 65.4062 99.6328C65.4062 95.2734 69.0625 86.9062 70.9609 86.9062C71.2422 86.9062 72.6484 87.9609 74.0547 89.1562Z" fill="white"/>
<path d="M43.4688 48.0234C42.7656 48.1641 42.2031 48.9375 42.2031 49.6406C42.2031 50.6953 42.6953 50.9062 45.1562 50.7656C48.6016 50.5547 49.4453 49.2187 46.7734 48.2344C45.7891 47.8828 44.875 47.6016 44.8047 47.6016C44.7344 47.6719 44.1016 47.8125 43.4688 48.0234Z" fill="white"/>
<path d="M58.5156 48.3047C56.0547 49.2891 57.0391 50.625 60.3438 50.7656C63.5781 50.9062 64.4219 49.5703 61.9609 48.2344C60.3438 47.3906 60.625 47.3906 58.5156 48.3047Z" fill="white"/>
<path d="M43.8203 53.5781C43.2578 55.0547 44.7344 56.5313 45.7891 55.4766C46.7031 54.5625 46.1406 52.4531 45.0156 52.4531C44.5938 52.4531 44.1016 52.9453 43.8203 53.5781Z" fill="white"/>
<path d="M59.0781 53.7891C59.0781 55.5469 60.4141 56.4609 61.2578 55.1953C62.1016 53.8594 61.6797 52.875 60.2734 52.5938C59.5 52.4531 59.0781 52.8047 59.0781 53.7891Z" fill="white"/>
<path d="M47.6172 58.5703C47.3359 58.7813 47.125 59.9063 47.125 61.0313C47.125 64.8281 51.4141 67.5 55.2109 66.0938C56.8281 65.4609 58.5859 61.7344 58.0938 59.7656C57.6719 58.2188 57.3203 58.0781 52.8203 58.0781C50.2188 58.0781 47.8281 58.2891 47.6172 58.5703ZM55.4219 61.3125C55.2812 61.9453 54.6484 62.8594 54.0156 63.2813C52.5391 64.1953 50.4297 63.1406 50.0781 61.3125C49.8672 60.3984 50.4297 60.1875 52.75 60.1875C55.0703 60.1875 55.6328 60.3984 55.4219 61.3125Z" fill="white"/>
<path d="M82.0703 36C81.7891 36.2812 81.5781 37.2656 81.5781 38.1094C81.5781 39.3047 81.0859 39.7266 79.6797 39.9375C77.8516 40.1484 77.7109 40.3594 77.7109 43.6641C77.7109 46.9688 77.8516 47.1797 79.6094 47.3906C81.0859 47.6016 81.5078 48.0234 81.7188 49.5C81.9297 51.2578 82.1406 51.3984 85.4453 51.3984C88.75 51.3984 88.9609 51.2578 89.1719 49.4297C89.3828 47.9531 89.8047 47.5312 91.0703 47.5312C92.9688 47.5312 94.2344 45.7734 94.2344 43.1719C94.2344 41.0625 93.0391 39.7969 91 39.7969C89.8047 39.7969 89.3828 39.3047 89.1719 37.8281C88.9609 36.1406 88.6797 35.9297 85.7969 35.7188C84.0391 35.5781 82.3516 35.7188 82.0703 36ZM86.5 39.3047C86.5 41.3438 87.7656 42.6094 89.8047 42.6094C90.7891 42.6094 91.4219 43.0312 91.4219 43.6641C91.4219 44.2969 90.7891 44.7188 89.8047 44.7188C87.7656 44.7188 86.5 45.9844 86.5 48.0234C86.5 50.625 84.5312 49.9922 84.25 47.3203C84.0391 45.3516 83.7578 45.0703 81.7891 44.8594C79.2578 44.5781 78.4844 42.6094 80.8047 42.6094C83.4062 42.6094 84.3906 41.7656 84.3906 39.7266C84.3906 38.3906 84.7422 37.6875 85.4453 37.6875C86.0781 37.6875 86.5 38.3203 86.5 39.3047Z" fill="white"/>
<defs>
<linearGradient id="paint0_linear_6_27" x1="63.8325" y1="0" x2="63.8325" y2="125.665" gradientUnits="userSpaceOnUse">
<stop stop-color="#10B0AE"/>
<stop offset="1" stop-color="#E2E5ED"/>
</linearGradient>
</defs>
</svg>
