<svg width="127" height="126" viewBox="0 0 127 126" fill="none" xmlns="http://www.w3.org/2000/svg">
<path d="M63.8325 125.665C98.5339 125.665 126.665 97.5339 126.665 62.8325C126.665 28.1311 98.5339 0 63.8325 0C29.1311 0 1 28.1311 1 62.8325C1 97.5339 29.1311 125.665 63.8325 125.665Z" fill="url(#paint0_linear_6_31)"/>
<path d="M56.8984 19.2656C48.6016 21.4453 41.7812 26.6484 38.4062 33.3281C36.8594 36.3516 35.1719 44.0859 35.1719 48.3047C35.1719 52.2422 36.7188 54.4922 41.3594 57.1641C44.1719 58.8516 45.4375 59.1328 50.0781 59.1328C53.1016 59.1328 55.5625 59.3438 55.5625 59.625C55.5625 59.9766 56.1953 60.8203 56.9688 61.5938C58.2344 62.8594 59.2891 63 67.8672 63C76.4453 63 77.5 62.8594 78.7656 61.5938C79.5391 60.8203 80.1719 59.4141 80.1719 58.4297C80.1719 54.9141 78.0625 53.8594 70.9609 53.8594H64.6328L66.1094 51.8203C68.0781 48.9375 69.625 44.3672 69.625 41.1328C69.625 38.25 69.9062 38.0391 72.6484 39.0234C73.9844 39.5859 74.4062 40.3594 74.8281 43.0312C75.3203 46.9688 77.8516 51.6094 80.875 54.0703C83.3359 56.1797 83.4766 57.1641 81.5781 60.8203C79.0469 65.8828 73.2812 69.3281 67.375 69.3281C64.2109 69.3281 57.9531 66.1641 56.125 63.6328C54.3672 61.3125 52.0469 60.8906 52.0469 62.9297C52.0469 65.0391 55.3516 68.4844 59.3594 70.5234C62.2422 72.0703 63.9297 72.4219 67.8672 72.4219C70.75 72.4219 73.8438 71.9297 75.3203 71.2969C79.3984 69.5391 83.4062 65.3906 85.1641 61.2422C86.5703 57.7266 86.8516 57.5156 88.3984 58.1484C90.6484 58.9922 95.3594 58.9922 98.3828 58.0781C99.7188 57.7266 100.984 57.5156 101.125 57.7266C102.25 58.7812 94.5156 74.9531 91.3516 78.1172C90.2969 79.1719 84.3906 77.2734 81.4375 74.8828C78.4844 72.5625 76.6562 72.2812 76.6562 74.1797C76.6562 76.7812 83.5469 81.2812 87.5547 81.2812C88.5391 81.2812 89.3125 81.3516 89.3125 81.4219C89.3125 81.5625 88.6094 83.3906 87.7656 85.5C86.5703 88.5234 86.2188 91.3359 85.9375 98.7188L85.6562 108H87.4844H89.3125V99.9141C89.3125 89.8594 90.1562 87.2578 96.9062 76.0781C103.445 65.3203 105.062 60.4688 104.992 51.75C104.852 35.1562 95.9219 22.9219 81.2266 19.0547C75.5312 17.5781 62.9453 17.7188 56.8984 19.2656ZM77.7109 21.8672C90.3672 24.5391 98.875 33.1875 101.195 45.7734C102.461 52.5234 102.391 52.875 98.8047 54.2109C89.2422 57.9375 78.9062 51.3984 78.2031 41.2031C77.8516 36.0703 78.9062 32.7656 82 29.4609C84.9531 26.3672 85.0938 24.8203 82.4922 25.1719C80.2422 25.4531 76.0938 30.4453 75.4609 33.5391C75.1797 35.0156 74.6875 35.5781 73.5625 35.5781C70.3984 35.5781 68.8516 34.5938 67.5156 32.0625C66.0391 29.1797 60.2031 23.625 58.6562 23.625C58.0938 23.625 57.6719 23.3438 57.6719 22.9922C57.6719 22.5703 59.1484 22.0781 61.0469 21.8672C62.875 21.5859 64.7031 21.3047 65.0547 21.1641C66.8125 20.6016 73.2109 20.9531 77.7109 21.8672ZM57.6719 27.1406C62.875 29.8125 66.1094 35.0859 66.1094 40.8516C66.1094 44.7891 64.8438 47.8828 61.9609 51.2578C57.25 56.5312 47.8984 57.5859 41.9922 53.4375L39.0391 51.3281L39.1094 46.4062C39.1797 38.0391 42.2031 31.7812 48.3203 27.0703C51.2734 24.8203 53.1719 24.8906 57.6719 27.1406Z" fill="white"/>
<path d="M41.9922 41.6953C40.9375 42.6797 41.5703 45.4219 43.2578 47.4609C45.4375 49.9922 49.1641 51.3281 52.3984 50.7656C57.25 49.8516 61.8203 43.875 59.2891 41.7656C58.375 40.9922 58.0234 41.0625 57.3906 42.2578C53.6641 48.7969 48.5312 49.1484 44.8047 43.1016C43.5391 41.2031 42.8359 40.7812 41.9922 41.6953Z" fill="white"/>
<path d="M28.7031 56.1094C21.7422 60.4688 21.1797 63 25.8906 68.0625C27.5078 69.8203 27.5781 70.1719 26.875 72.9141C26.1016 76.0781 26.3125 77.3438 28.1406 79.5234C28.7734 80.2969 29.7578 82.8281 30.25 85.0781C31.375 90.6328 33.2031 94.6406 35.4531 96.75C37.7031 98.7891 43.2578 99.3516 50.8516 98.3672L55.5625 97.6641V102.867C55.5625 107.578 55.7031 108 56.9688 108C58.375 108 58.4453 107.648 58.2344 101.109C58.0234 94.2891 58.0234 94.2891 56.2656 94.4297C55.2813 94.5 51.1328 94.7812 46.9141 95.0625C39.6016 95.5547 39.3203 95.4844 37.6328 93.9375C36.6484 93.0234 35.2422 90.2812 34.4688 87.75C32.5703 81.6328 32.6406 81.2109 35.1719 81.7031C37.0703 82.125 37.2813 81.9844 37.2813 80.4375C37.2813 78.9609 36.7891 78.6094 33.7656 77.8359C31.8672 77.3438 30.1094 76.7109 29.8984 76.4297C29.7578 76.1484 30.0391 74.3906 30.6016 72.4922L31.6563 69.1172L28.8438 66.0234C27.2266 64.3359 26.1719 62.6484 26.4531 62.2266C26.6641 61.8047 28.7031 60.3281 30.8828 58.9922C35.2422 56.1797 35.875 55.4766 35.3828 54.0703C34.8203 52.6641 33.7656 52.9453 28.7031 56.1094Z" fill="white"/>
<defs>
<linearGradient id="paint0_linear_6_31" x1="63.8325" y1="0" x2="63.8325" y2="125.665" gradientUnits="userSpaceOnUse">
<stop stop-color="#10B0AE"/>
<stop offset="1" stop-color="#E2E5ED"/>
</linearGradient>
</defs>
</svg>
