<svg width="127" height="126" viewBox="0 0 127 126" fill="none" xmlns="http://www.w3.org/2000/svg">
<path d="M63.8325 125.665C98.5339 125.665 126.665 97.5339 126.665 62.8325C126.665 28.1311 98.5339 0 63.8325 0C29.1311 0 0.999986 28.1311 0.999986 62.8325C0.999986 97.5339 29.1311 125.665 63.8325 125.665Z" fill="url(#paint0_linear_6_23)"/>
<path d="M55 19.1953C49.0938 22.0781 49.1641 31.5703 55.1406 34.4531C58.0937 35.8594 59.8516 35.8594 62.9453 34.5938C69.1328 31.9922 69.2031 22.0781 63.0156 19.125C59.9922 17.7188 57.9531 17.7188 55 19.1953Z" fill="white"/>
<path d="M41.4297 39.9375C37.7734 42.75 33.1328 49.4297 30.8828 55.0547C29.2656 58.9922 29.1953 59.9766 28.9844 81.6328C28.7734 103.641 28.7734 104.133 30.25 105.68C32.2187 107.859 35.0312 108.422 37.2109 107.227C40.5859 105.328 40.7969 104.133 40.7969 82.5469C40.7969 60.3984 41.1484 58.2891 45.3672 52.8047L47.1953 50.3437L52.0469 52.8047C56.6875 55.125 57.3203 55.2656 64.2812 55.2656C71.0312 55.2656 71.8047 55.125 73.5625 53.5781C76.3047 51.2578 76.3047 47.3203 73.5625 45C71.875 43.5234 70.9609 43.3125 65.3359 43.3125C59.4297 43.3125 58.7266 43.1719 53.4531 40.5C50.3594 38.9531 47.0547 37.6875 46.1406 37.6875C45.2266 37.6875 43.0469 38.7422 41.4297 39.9375Z" fill="white"/>
<path d="M79.9609 39.0937L78.2031 40.5L79.9609 43.7344C81.5078 46.4766 81.7187 47.5312 81.3672 50.6953C81.0156 54.0703 81.1562 54.5625 82.4219 54.9844C86.5 56.25 92.3359 52.4531 93.1797 47.9531C94.5156 40.8516 85.5156 34.7344 79.9609 39.0937Z" fill="white"/>
<path d="M68.7812 60.6797L64 60.9609V69.3281C64 78.6094 64.4922 80.5781 67.7266 83.9531C70.4688 86.8359 73.3516 87.6094 81.0859 87.6094H87.2031V95.1328C87.2031 103.359 87.9062 105.609 90.7891 107.227C92.9688 108.422 95.7812 107.859 97.75 105.75C99.0156 104.344 99.1562 103.289 99.1562 94.3594C99.1562 85.4297 99.0156 84.1641 97.5391 81.7031C95.0078 77.2031 91.2109 75.6562 82.8438 75.6562H75.9531V67.9219C75.9531 60.9609 75.8125 60.1875 74.7578 60.3281C74.0547 60.3984 71.3828 60.5391 68.7812 60.6797Z" fill="white"/>
<path d="M61.1875 96.1875C61.1875 103.148 61.4687 106.594 62.0312 107.156C62.5937 107.719 66.0391 108 73 108C82.4219 108 83.125 107.93 82.5625 106.734C82.2812 106.102 81.9297 102.797 81.7187 99.3516L81.4375 93.2344H77.2187C71.3828 93.2344 68.0078 92.0391 64.2812 88.8047L61.1875 86.0625V96.1875Z" fill="white"/>
<defs>
<linearGradient id="paint0_linear_6_23" x1="63.8325" y1="0" x2="63.8325" y2="125.665" gradientUnits="userSpaceOnUse">
<stop stop-color="#10B0AE"/>
<stop offset="1" stop-color="#E2E5ED"/>
</linearGradient>
</defs>
</svg>
